<svg version="1.1" id="Layer_1" xmlns="http://www.w3.org/2000/svg" xmlns:xlink="http://www.w3.org/1999/xlink" 
	 viewBox="0 0 512 512" xml:space="preserve">
<rect x="421.102" y="434.192" transform="matrix(0.7071 -0.7071 0.7071 0.7071 -190.3087 459.4888)" style="fill:none;" width="76.791" height="50.551"/>
<path style="fill:#e4d4f4;" d="M204.803,396.8c-105.873,0-192-86.135-192-192s86.127-192,192-192s192,86.135,192,192
	S310.676,396.8,204.803,396.8z"/>
<path style="fill:#a1a1aa;" d="M381.085,308.668c18.005-30.481,28.518-65.903,28.518-103.868c0-113.109-91.691-204.8-204.8-204.8
	S0.003,91.691,0.003,204.8s91.691,204.8,204.8,204.8c37.965,0,73.395-10.513,103.876-28.518l123.418,123.426
	c4.804,4.796,11.315,7.492,18.099,7.492c6.793,0,13.303-2.697,18.099-7.501l36.207-36.207c9.993-10.001,9.993-26.206,0-36.207
	L381.085,308.668z M204.803,384c-98.807,0-179.2-80.384-179.2-179.2s80.393-179.2,179.2-179.2s179.2,80.384,179.2,179.2
	S303.611,384,204.803,384z M414.45,450.654l-84.207-84.207c13.534-10.522,25.685-22.665,36.207-36.207l84.207,84.207L414.45,450.654
	z M450.196,486.4l-17.647-17.647l36.207-36.207l17.647,17.647L450.196,486.4z"/>
</svg>