<?xml version="1.0" encoding="utf-8"?>
<!-- Generator: Adobe Illustrator 26.0.1, SVG Export Plug-In . SVG Version: 6.00 Build 0)  -->
<svg version="1.1" id="Слой_1" xmlns="http://www.w3.org/2000/svg" xmlns:xlink="http://www.w3.org/1999/xlink" x="0px" y="0px"
	 viewBox="0 0 800 800" style="enable-background:new 0 0 800 800;" xml:space="preserve">
<style type="text/css">
	.st0{fill:#FFFFFF;}
	.st1{fill:#E6E6E6;}
	.st2{fill:#06F3FF;}
	.st3{fill:#005BFF;}
	.st4{font-family:'Mulish';}
	.st5{font-size:220px;}
</style>
<path class="st0" d="M667.5,647h-535c-30.4,0-55.1-24.7-55.1-55.1V202c0-30.4,24.7-55.1,55.1-55.1h534.9c30.4,0,55.1,24.7,55.1,55.1
	v389.8C722.6,622.3,697.9,647,667.5,647L667.5,647z"/>
<path class="st1" d="M691.4,201.6c0-12.9-10.5-23.4-23.4-23.4H132.1c-12.9,0-23.4,10.5-23.4,23.4v93.8h582.6L691.4,201.6
	L691.4,201.6z M183.8,276.7c-22,0-40-18-40-40s18-40,40-40s40,18,40,40S205.9,276.7,183.8,276.7L183.8,276.7z M403.9,271.4H292.5
	c-18.8,0-34.1-15.3-34.1-34.1s15.3-34.1,34.1-34.1h111.4c18.8,0,34.1,15.3,34.1,34.1S422.8,271.4,403.9,271.4L403.9,271.4z"/>
<path class="st2" d="M166.4,588.1h233.4c4.3,0,7.8-3.5,7.8-7.8s-3.5-7.8-7.8-7.8H166.4c-6.6,0-12-5.4-12-12V409.8
	c0-4.3-3.5-7.8-7.8-7.8s-7.8,3.5-7.8,7.8v150.7C138.9,575.7,151.2,588.1,166.4,588.1L166.4,588.1z"/>
<path class="st0" d="M183.8,212.3c-13.4,0-24.4,10.9-24.4,24.4s10.9,24.4,24.4,24.4s24.4-10.9,24.4-24.4S197.2,212.3,183.8,212.3
	L183.8,212.3z"/>
<path class="st3" d="M183.8,196.7c-22,0-40,18-40,40s18,40,40,40s40-18,40-40S205.9,196.7,183.8,196.7L183.8,196.7z M183.8,261.1
	c-13.4,0-24.4-10.9-24.4-24.4s10.9-24.4,24.4-24.4s24.4,10.9,24.4,24.4S197.2,261.1,183.8,261.1L183.8,261.1z"/>
<path class="st0" d="M403.9,218.8H292.5c-10.2,0-18.5,8.3-18.5,18.5s8.3,18.5,18.5,18.5h111.4c10.2,0,18.5-8.3,18.5-18.5
	S414.1,218.8,403.9,218.8L403.9,218.8z"/>
<path class="st3" d="M403.9,203.2H292.5c-18.8,0-34.1,15.3-34.1,34.1s15.3,34.1,34.1,34.1h111.4c18.8,0,34.1-15.3,34.1-34.1
	S422.8,203.2,403.9,203.2L403.9,203.2z M403.9,255.8H292.5c-10.2,0-18.5-8.3-18.5-18.5c0-10.2,8.3-18.5,18.5-18.5h111.4
	c10.2,0,18.5,8.3,18.5,18.5C422.5,247.5,414.1,255.8,403.9,255.8L403.9,255.8z"/>
<path class="st3" d="M667.9,147H132.1c-30.2,0-54.7,24.5-54.7,54.7v390.6c0,30.2,24.5,54.7,54.7,54.7h535.7
	c30.2,0,54.7-24.5,54.7-54.7V201.6C722.6,171.5,698.1,147,667.9,147L667.9,147z M691.4,592.3c0,12.9-10.5,23.4-23.4,23.4H132.1
	c-12.9,0-23.4-10.5-23.4-23.4V311.1h582.6L691.4,592.3L691.4,592.3z M691.4,295.5H108.8v-93.8c0-12.9,10.5-23.4,23.4-23.4h535.7
	c12.9,0,23.4,10.5,23.4,23.4V295.5L691.4,295.5z"/>
<text transform="matrix(1 0 0 1 208.164 534.89)" class="st3 st4 st5">404</text>
</svg>
